<svg xmlns="http://www.w3.org/2000/svg" width="1200" height="470" viewBox="0 0 1200 470" role="img">
<style>
  .base { font-family: -apple-system, BlinkMacSystemFont, 'Segoe UI', Roboto, Helvetica, Arial, sans-serif; fill: #171717; }
  .node-title { font-size:16px; font-weight:650; fill:#171717; }
  .body { font-size:13px; font-weight:400; fill:#5f6368; }
  .body-dark { font-size:13px; font-weight:500; fill:#171717; }
  .small { font-size:11px; font-weight:400; fill:#5f6368; }
  .small-bold { font-size:11px; font-weight:700; fill:#171717; }
  .accent-text { fill:#880080; }
  .gap-label { font-size:11px; font-weight:700; fill:#9c3d3d; letter-spacing:.06em; }
</style>
<rect width="100%" height="100%" fill="#ffffff"/>
<defs>
  <marker id="arrow" markerWidth="8" markerHeight="8" refX="7" refY="4" orient="auto" markerUnits="strokeWidth">
    <path d="M0,0 L8,4 L0,8 z" fill="#c000b4"/>
  </marker>
</defs>
<rect x="55" y="40" width="275" height="390" rx="15" fill="#f7f7f8" stroke="#d9dce1" stroke-width="1.5"/>
<text class="base small-bold" x="192" y="70" text-anchor="middle">INTERVENTION OPTIONS</text>
<text class="base node-title" x="80" y="115" text-anchor="start">•</text>
<text class="base body-dark" x="98" y="115" text-anchor="start">Renewable energy</text>
<text class="base node-title" x="80" y="153" text-anchor="start">•</text>
<text class="base body-dark" x="98" y="153" text-anchor="start">District energy</text>
<text class="base node-title" x="80" y="191" text-anchor="start">•</text>
<text class="base body-dark" x="98" y="191" text-anchor="start">Urban greening</text>
<text class="base node-title" x="80" y="229" text-anchor="start">•</text>
<text class="base body-dark" x="98" y="229" text-anchor="start">Retrofit</text>
<text class="base node-title" x="80" y="267" text-anchor="start">•</text>
<text class="base body-dark" x="98" y="267" text-anchor="start">Low-carbon concrete</text>
<text class="base node-title" x="80" y="305" text-anchor="start">•</text>
<text class="base body-dark" x="98" y="305" text-anchor="start">Timber / hybrid systems</text>
<text class="base node-title" x="80" y="343" text-anchor="start">•</text>
<text class="base body-dark" x="98" y="343" text-anchor="start">Recycled / bio-based</text>
<text class="base node-title" x="80" y="381" text-anchor="start">•</text>
<text class="base body-dark" x="98" y="381" text-anchor="start">Reuse / deconstruction</text>
<line x1="335" y1="235" x2="410" y2="235" stroke="#c000b4" stroke-width="2.2" marker-end="url(#arrow)"/>
<rect x="420" y="90" width="300" height="290" rx="17" fill="#f9eaf7" stroke="#c000b4" stroke-width="1.5"/>
<text class="base node-title" x="570" y="135" text-anchor="middle"><tspan x="570" dy="0">MULTI-CRITERIA</tspan><tspan x="570" dy="24">ASSESSMENT</tspan></text>
<rect x="475" y="200" width="190" height="25" rx="8" fill="#ffffff" stroke="#d9dce1" stroke-width="1.5"/>
<text class="base small" x="570" y="217" text-anchor="middle">Embodied carbon</text>
<rect x="475" y="234" width="190" height="25" rx="8" fill="#ffffff" stroke="#d9dce1" stroke-width="1.5"/>
<text class="base small" x="570" y="251" text-anchor="middle">Operational energy</text>
<rect x="475" y="268" width="190" height="25" rx="8" fill="#ffffff" stroke="#d9dce1" stroke-width="1.5"/>
<text class="base small" x="570" y="285" text-anchor="middle">Cost</text>
<rect x="475" y="302" width="190" height="25" rx="8" fill="#ffffff" stroke="#d9dce1" stroke-width="1.5"/>
<text class="base small" x="570" y="319" text-anchor="middle">Service life</text>
<rect x="475" y="336" width="190" height="25" rx="8" fill="#ffffff" stroke="#d9dce1" stroke-width="1.5"/>
<text class="base small" x="570" y="353" text-anchor="middle">Resilience</text>
<line x1="725" y1="235" x2="785" y2="235" stroke="#c000b4" stroke-width="2.2" marker-end="url(#arrow)"/>
<rect x="795" y="125" width="180" height="220" rx="15" fill="#f7f7f8" stroke="#d9dce1" stroke-width="1.5"/>
<text class="base node-title" x="885" y="175" text-anchor="middle"><tspan x="885" dy="0">TRADE-OFF</tspan><tspan x="885" dy="22">ANALYSIS</tspan></text>
<text class="base body" x="885" y="245" text-anchor="middle"><tspan x="885" dy="0">Compare performance,</tspan><tspan x="885" dy="18">life-cycle impacts,</tspan><tspan x="885" dy="18">and decision priorities.</tspan></text>
<line x1="980" y1="235" x2="1030" y2="235" stroke="#c000b4" stroke-width="2.2" marker-end="url(#arrow)"/>
<rect x="1040" y="95" width="125" height="280" rx="15" fill="#ffffff" stroke="#c000b4" stroke-width="1.5"/>
<text class="base small-bold" x="1102" y="125" text-anchor="middle">OUTPUTS</text>
<text class="base small" x="1102" y="180" text-anchor="middle">Design charts</text>
<text class="base small" x="1102" y="228" text-anchor="middle">Scenario libraries</text>
<text class="base small" x="1102" y="276" text-anchor="middle">Multi-criteria tools</text>
<text class="base small" x="1102" y="324" text-anchor="middle">Early-design guidance</text></svg>